<?xml version="1.0" standalone="no"?>
<!DOCTYPE svg PUBLIC "-//W3C//DTD SVG 1.1//EN" "http://www.w3.org/Graphics/SVG/1.1/DTD/svg11.dtd">
<svg version="1.1" xmlns="http://www.w3.org/2000/svg" viewBox="0 0 529.8730209392122 457.9135576695855" width="529.8730209392122" height="457.9135576695855"><!-- svg-source:excalidraw --><metadata></metadata><defs><style class="style-fonts">
      </style></defs><rect x="0" y="0" width="529.8730209392122" height="457.9135576695855" fill="#ffffff"></rect><g stroke-linecap="round"><g transform="translate(9.726561795985333 65.46786556839942) rotate(0 245.90142875916797 -3.3507159054628914)"><path d="M1.14 -0.94 C83.05 -2.07, 410.72 -6.23, 492.52 -7.03 M0.27 1.18 C82 0.25, 410.12 -4.2, 491.94 -5.67" stroke="#1e1e1e" stroke-width="2" fill="none"></path></g></g><mask></mask><g stroke-linecap="round"><g transform="translate(12.926574003016583 407.867905241251) rotate(0 252.56551629646674 3.1832362702710384)"><path d="M0.88 -0.05 C84.89 0.97, 420.56 4.69, 504.54 5.68 M-0.12 -1.12 C84.25 0.08, 422.96 5.51, 506.95 6.85" stroke="#1e1e1e" stroke-width="2" fill="none"></path></g></g><mask></mask><g stroke-linecap="round"><g transform="translate(66.52654958895408 11.06785641312598) rotate(0 -2 217.60000610351562)"><path d="M0.94 -1.07 C0.26 71.37, -2.42 362.5, -3.3 435.27 M-0.03 0.99 C-0.87 73.58, -3.01 364.77, -3.88 436.85" stroke="#1e1e1e" stroke-width="2" fill="none"></path></g></g><mask></mask><g stroke-linecap="round"><g transform="translate(64.92654348543846 119.86788998246192) rotate(0 28.800003051757812 -26)"><path d="M-0.4 0.51 C8.89 -8.22, 47.11 -43.12, 56.81 -51.73 M1.59 -0.27 C11.17 -9.44, 49.85 -44.92, 59.1 -53.7" stroke="#1e1e1e" stroke-width="2" fill="none"></path></g></g><mask></mask><g stroke-linecap="round"><g transform="translate(65.55567563369198 350.7183068405099) rotate(0 23.78631931451841 28.88339369123389)"><path d="M0.26 0.66 C8.04 10.59, 39.45 49.02, 47.46 58.57 M-1.06 -0.03 C6.48 9.64, 38.28 46.97, 46.45 56.86" stroke="#1e1e1e" stroke-width="2" fill="none"></path></g></g><mask></mask><g stroke-linecap="round"><g transform="translate(62.157644567095474 350.23286060393866) rotate(0 -18.44654033739772 27.184368898995416)"><path d="M0.76 0.7 C-5.31 9.79, -30.44 45.45, -36.61 54.22 M-0.3 0.02 C-6.49 9.32, -31.34 46.67, -37.42 55.68" stroke="#1e1e1e" stroke-width="2" fill="none"></path></g></g><mask></mask><g stroke-linecap="round"><g transform="translate(310.39340444145745 62.354675741562346) rotate(0 0 29.172197229058014)"><path d="M1.16 -0.65 C1.35 8.73, 1.56 47.24, 1.18 57.21 M0.31 1.63 C0.45 11.02, 0.7 48.89, 0.85 58.15" stroke="#1e1e1e" stroke-width="2" fill="none"></path></g></g><mask></mask></svg>