<?xml version="1.0" standalone="no"?>
<!DOCTYPE svg PUBLIC "-//W3C//DTD SVG 1.1//EN" "http://www.w3.org/Graphics/SVG/1.1/DTD/svg11.dtd">
<svg version="1.1" xmlns="http://www.w3.org/2000/svg" viewBox="0 0 529.8730209392122 457.9135576695855" width="529.8730209392122" height="457.9135576695855"><!-- svg-source:excalidraw --><metadata></metadata><defs><style class="style-fonts">
      </style></defs><rect x="0" y="0" width="529.8730209392122" height="457.9135576695855" fill="#ffffff"></rect><g stroke-linecap="round"><g transform="translate(9.726561795985333 65.46786556839942) rotate(0 245.90142875916797 -3.3507159054628914)"><path d="M1.14 -0.94 C83.05 -2.07, 410.72 -6.23, 492.52 -7.03 M0.27 1.18 C82 0.25, 410.12 -4.2, 491.94 -5.67" stroke="#1e1e1e" stroke-width="2" fill="none"></path></g></g><mask></mask><g stroke-linecap="round"><g transform="translate(12.926574003016583 407.867905241251) rotate(0 252.56551629646674 3.1832362702710384)"><path d="M0.88 -0.05 C84.89 0.97, 420.56 4.69, 504.54 5.68 M-0.12 -1.12 C84.25 0.08, 422.96 5.51, 506.95 6.85" stroke="#1e1e1e" stroke-width="2" fill="none"></path></g></g><mask></mask><g stroke-linecap="round"><g transform="translate(66.52654958895408 11.06785641312598) rotate(0 -2 217.60000610351562)"><path d="M0.94 -1.07 C0.26 71.37, -2.42 362.5, -3.3 435.27 M-0.03 0.99 C-0.87 73.58, -3.01 364.77, -3.88 436.85" stroke="#1e1e1e" stroke-width="2" fill="none"></path></g></g><mask></mask><g stroke-linecap="round"><g transform="translate(64.92654348543846 119.86788998246192) rotate(0 28.800003051757812 -26)"><path d="M-0.4 0.51 C8.89 -8.22, 47.11 -43.12, 56.81 -51.73 M1.59 -0.27 C11.17 -9.44, 49.85 -44.92, 59.1 -53.7" stroke="#1e1e1e" stroke-width="2" fill="none"></path></g></g><mask></mask><g stroke-linecap="round"><g transform="translate(65.55567563369198 350.7183068405099) rotate(0 23.78631931451841 28.88339369123389)"><path d="M0.26 0.66 C8.04 10.59, 39.45 49.02, 47.46 58.57 M-1.06 -0.03 C6.48 9.64, 38.28 46.97, 46.45 56.86" stroke="#1e1e1e" stroke-width="2" fill="none"></path></g></g><mask></mask><g stroke-linecap="round"><g transform="translate(62.157644567095474 350.23286060393866) rotate(0 -18.44654033739772 27.184368898995416)"><path d="M0.76 0.7 C-5.31 9.79, -30.44 45.45, -36.61 54.22 M-0.3 0.02 C-6.49 9.32, -31.34 46.67, -37.42 55.68" stroke="#1e1e1e" stroke-width="2" fill="none"></path></g></g><mask></mask><g stroke-linecap="round"><g transform="translate(310.39340444145745 62.354675741562346) rotate(0 0 29.172197229058014)"><path d="M1.16 -0.65 C1.35 8.73, 1.56 47.24, 1.18 57.21 M0.31 1.63 C0.45 11.02, 0.7 48.89, 0.85 58.15" stroke="#1e1e1e" stroke-width="2" fill="none"></path></g></g><mask></mask><g stroke-linecap="round" transform="translate(274.5532509810491 119.03204934666897) rotate(0 40.00761020741686 37.09036345861516)"><path d="M27.34 1.23 C33.93 -1.43, 42.93 0.23, 50.32 2.26 C57.7 4.29, 66.76 7.96, 71.64 13.42 C76.53 18.88, 79.38 27.45, 79.61 35.04 C79.85 42.62, 77.48 52.93, 73.05 58.95 C68.62 64.97, 60.48 68.9, 53.04 71.17 C45.61 73.43, 36.03 74.35, 28.43 72.57 C20.82 70.78, 12.07 66.19, 7.42 60.45 C2.77 54.72, 0.76 45.46, 0.54 38.16 C0.32 30.86, 0.79 22.74, 6.1 16.64 C11.4 10.54, 27.4 4.09, 32.39 1.56 C37.37 -0.97, 36.02 0.84, 36.02 1.47 M52.53 1.18 C59.84 2.95, 68.45 9.59, 73.14 15.66 C77.83 21.73, 81 30.58, 80.66 37.62 C80.33 44.66, 75.88 52.1, 71.13 57.9 C66.37 63.7, 59.15 70.21, 52.14 72.41 C45.12 74.61, 36.52 73.39, 29.04 71.1 C21.57 68.81, 12.12 64.3, 7.29 58.68 C2.46 53.06, 0.17 44.7, 0.05 37.4 C-0.06 30.09, 1.88 20.82, 6.57 14.86 C11.27 8.89, 20.85 3.63, 28.23 1.59 C35.62 -0.44, 47.16 2.29, 50.91 2.63 C54.66 2.98, 50.62 3.05, 50.75 3.64" stroke="#1e1e1e" stroke-width="2" fill="none"></path></g><g stroke-linecap="round" transform="translate(292.9881412232831 140.75743680974597) rotate(0 6.2497890696189415 5.624810162657013)"><path d="M7.01 -0.19 C8.36 -0.2, 10.35 0.54, 11.24 1.51 C12.12 2.47, 12.35 4.27, 12.32 5.58 C12.28 6.89, 11.89 8.44, 11.03 9.37 C10.18 10.3, 8.52 11.01, 7.2 11.15 C5.89 11.29, 4.24 10.81, 3.12 10.19 C2 9.57, 0.96 8.53, 0.49 7.42 C0.02 6.32, -0.11 4.69, 0.28 3.58 C0.67 2.47, 1.57 1.37, 2.82 0.77 C4.07 0.17, 7.08 -0.02, 7.8 -0.03 C8.53 -0.04, 7.23 0.51, 7.17 0.7 M4.42 0.19 C5.48 -0.07, 7.67 0.07, 9.06 0.74 C10.45 1.41, 12.14 3.04, 12.75 4.21 C13.35 5.38, 13.28 6.82, 12.7 7.77 C12.11 8.73, 10.58 9.41, 9.24 9.95 C7.91 10.49, 5.96 11.21, 4.68 11.03 C3.41 10.85, 2.25 9.69, 1.58 8.89 C0.92 8.08, 0.62 7.32, 0.71 6.21 C0.79 5.1, 1.35 3.17, 2.08 2.23 C2.8 1.29, 4.59 0.94, 5.05 0.56 C5.51 0.18, 4.88 -0.07, 4.81 -0.04" stroke="none" stroke-width="0" fill="#ffffff"></path><path d="M7.01 0.36 C8.3 0.48, 10.28 1.24, 11.11 1.98 C11.95 2.72, 11.98 3.66, 11.99 4.8 C12 5.94, 11.8 7.81, 11.18 8.81 C10.55 9.82, 9.55 10.54, 8.24 10.84 C6.92 11.14, 4.5 11.17, 3.28 10.63 C2.07 10.08, 1.46 8.69, 0.95 7.56 C0.45 6.43, -0.03 4.9, 0.23 3.85 C0.49 2.79, 1.43 1.8, 2.52 1.2 C3.62 0.61, 5.98 0.38, 6.82 0.29 C7.66 0.2, 7.6 0.61, 7.58 0.66 M5.52 0.16 C6.77 0.04, 9.1 0.02, 10.35 0.8 C11.59 1.58, 12.74 3.69, 12.98 4.83 C13.21 5.97, 12.55 6.68, 11.73 7.64 C10.92 8.61, 9.4 10.05, 8.1 10.63 C6.81 11.21, 5.1 11.46, 3.97 11.12 C2.83 10.77, 1.95 9.7, 1.3 8.55 C0.66 7.39, -0.09 5.33, 0.12 4.19 C0.34 3.04, 1.66 2.4, 2.59 1.68 C3.52 0.97, 5.22 0.23, 5.72 -0.09 C6.21 -0.4, 5.43 -0.3, 5.57 -0.2" stroke="#1e1e1e" stroke-width="2" fill="none"></path></g><g stroke-linecap="round" transform="translate(323.45972255392127 141.45271938976447) rotate(0 6.2497890696189415 5.624810162657013)"><path d="M6.32 0.33 C7.58 0.25, 9.1 0.78, 10.08 1.5 C11.06 2.22, 11.91 3.49, 12.2 4.63 C12.5 5.77, 12.51 7.31, 11.86 8.32 C11.22 9.33, 9.65 10.25, 8.33 10.7 C7.02 11.14, 5.23 11.47, 3.97 10.98 C2.71 10.48, 1.32 8.8, 0.75 7.72 C0.17 6.65, 0.21 5.62, 0.54 4.55 C0.87 3.47, 1.74 2.05, 2.73 1.26 C3.72 0.48, 5.75 0.06, 6.47 -0.16 C7.2 -0.37, 6.97 -0.1, 7.07 -0.02 M5.87 0.42 C7.29 0.27, 8.93 0.4, 10.11 1.06 C11.29 1.71, 12.6 3.09, 12.95 4.33 C13.29 5.56, 12.83 7.5, 12.19 8.48 C11.54 9.46, 10.29 9.89, 9.07 10.21 C7.84 10.53, 6.14 10.59, 4.83 10.4 C3.52 10.22, 1.91 9.83, 1.22 9.08 C0.53 8.34, 0.52 7.16, 0.68 5.93 C0.83 4.69, 1.44 2.54, 2.16 1.67 C2.88 0.79, 4.58 0.82, 5.02 0.68 C5.47 0.54, 4.85 0.72, 4.83 0.82" stroke="none" stroke-width="0" fill="#ffffff"></path><path d="M6.89 0.34 C8.26 0.34, 9.91 0.91, 10.82 1.6 C11.73 2.29, 12.28 3.33, 12.35 4.48 C12.42 5.63, 11.91 7.47, 11.23 8.52 C10.55 9.56, 9.4 10.29, 8.26 10.74 C7.12 11.19, 5.56 11.61, 4.38 11.23 C3.19 10.84, 1.86 9.49, 1.14 8.41 C0.42 7.33, -0.11 6, 0.06 4.77 C0.23 3.54, 1.14 1.81, 2.15 1.03 C3.17 0.25, 5.35 0.31, 6.16 0.08 C6.97 -0.15, 6.89 -0.37, 7.01 -0.35 M4.92 0.05 C5.97 -0.1, 7.9 -0.12, 9.18 0.64 C10.47 1.4, 12.26 3.37, 12.64 4.62 C13.02 5.87, 11.95 7.19, 11.47 8.13 C10.99 9.07, 11 9.74, 9.78 10.26 C8.56 10.79, 5.68 11.48, 4.18 11.29 C2.68 11.1, 1.41 10.04, 0.77 9.14 C0.13 8.24, 0.18 7.13, 0.34 5.88 C0.5 4.63, 0.84 2.59, 1.71 1.65 C2.58 0.7, 4.89 0.43, 5.58 0.19 C6.28 -0.04, 5.84 0.22, 5.87 0.25" stroke="#1e1e1e" stroke-width="2" fill="none"></path></g><g stroke-linecap="round"><g transform="translate(293.98809433171397 169.56236433451994) rotate(0 23.061722620535875 -1.4617815938052559)"><path d="M0.24 0.1 C3.97 -0.49, 15.23 -3.2, 22.88 -3.34 C30.52 -3.48, 42.19 -0.99, 46.12 -0.73 M-0.3 -0.33 C3.33 -0.88, 14.82 -2.66, 22.5 -2.85 C30.17 -3.05, 41.73 -1.75, 45.77 -1.52" stroke="#1e1e1e" stroke-width="2" fill="none"></path></g></g><mask></mask><g stroke-linecap="round"><g transform="translate(315.3812962803251 195.14101163064817) rotate(0 0.1792394915813702 36.92389594472726)"><path d="M-1.03 -0.03 C-1.06 12.05, 0.42 60.72, 0.66 73.11 M0.64 -1.09 C0.4 11.07, 0.04 62.04, -0.14 74.27" stroke="#1e1e1e" stroke-width="2" fill="none"></path></g></g><mask></mask><g stroke-linecap="round"><g transform="translate(317.1742998324891 194.527513704368) rotate(0 32.611641058326256 36.89922034274554)"><path d="M0.57 -0.88 C11.13 11.49, 53.13 61.6, 64.08 74.14 M-0.58 1.28 C10.26 13.27, 55.08 60.35, 66.19 72.19" stroke="#1e1e1e" stroke-width="2" fill="none"></path></g></g><mask></mask><g stroke-linecap="round"><g transform="translate(313.7207930435076 195.40990124633242) rotate(0 -29.714139435715595 34.58958148831337)"><path d="M-0.55 -0.82 C-10.6 10.88, -50.54 58.33, -60.55 69.93 M1.37 1.36 C-8.31 12.74, -48.48 56.79, -58.43 68.2" stroke="#1e1e1e" stroke-width="2" fill="none"></path></g></g><mask></mask></svg>